<svg width="148" height="20" viewBox="0 0 148 20" fill="none" xmlns="http://www.w3.org/2000/svg">
<g clip-path="url(#clip0_4440_8790)">
<path d="M67.0154 0.482379V19.5158C67.0154 19.6198 66.9303 19.7043 66.8255 19.7043H62.4785C62.3737 19.7043 62.2886 19.6198 62.2886 19.5158V0.482379C62.2886 0.378416 62.3737 0.293945 62.4785 0.293945H66.8255C66.9303 0.293945 67.0154 0.378416 67.0154 0.482379Z" fill="#0A2540"></path>
<path d="M39.3845 0.294105H34.0273C33.9062 0.294105 33.7965 0.367204 33.7506 0.477666L28.9026 12.2077C28.8764 12.271 28.8142 12.3133 28.7438 12.3133C28.6751 12.3133 28.6112 12.271 28.585 12.2077L23.7387 0.477666C23.6928 0.36558 23.5831 0.294105 23.462 0.294105H18.1048C17.9394 0.294105 17.8052 0.427308 17.8052 0.591376V19.4088C17.8052 19.5729 17.9394 19.7061 18.1048 19.7061H22.1112C22.2766 19.7061 22.4108 19.5729 22.4108 19.4088V7.71613H22.5729L27.1982 19.3942C27.2424 19.5079 27.3538 19.5826 27.4766 19.5826H30.0111C30.1339 19.5826 30.2436 19.5079 30.2894 19.3958L34.9147 7.78273H35.0768V19.7061L39.5941 15.2243C39.6497 15.169 39.6808 15.0927 39.6808 15.0147V0.589751C39.6808 0.425684 39.5466 0.29248 39.3812 0.29248L39.3845 0.294105Z" fill="#0A2540"></path>
<path d="M58.3606 4.792C57.578 3.34138 56.4646 2.23027 55.0222 1.45541C53.5797 0.682184 51.8622 0.293945 49.868 0.293945H42.9718C42.7917 0.293945 42.646 0.43852 42.646 0.617207V3.97003C42.646 4.14872 42.7917 4.2933 42.9718 4.2933H49.6306C50.7522 4.2933 51.6952 4.47848 52.4631 4.84885C53.231 5.21922 53.8122 5.81864 54.2068 6.65034C54.6014 7.48205 54.7995 8.59479 54.7995 9.9918C54.7995 11.3888 54.603 12.5048 54.2117 13.343C53.8204 14.1812 53.2441 14.7839 52.4828 15.1542C51.7214 15.5246 50.7931 15.7082 49.6978 15.7082H45.9353C45.8485 15.7082 45.7666 15.7423 45.7061 15.8024L42.7426 18.7426C42.682 18.8027 42.6476 18.8856 42.6476 18.9717V19.3859C42.6476 19.5646 42.7934 19.7091 42.9735 19.7091H49.8795C51.8671 19.7091 53.583 19.3225 55.0287 18.5477C56.4744 17.7745 57.5878 16.6601 58.3671 15.2062C59.1465 13.7524 59.5378 12.0158 59.5378 9.99342C59.5378 7.97101 59.1465 6.24424 58.3622 4.79524L58.3606 4.792Z" fill="#0A2540"></path>
<path d="M95.5253 0.53761V19.4622C95.5253 19.5971 95.4156 19.7059 95.2797 19.7059H91.0425C90.9066 19.7059 90.7969 19.5971 90.7969 19.4622V0.53761C90.7969 0.402782 90.9066 0.293945 91.0425 0.293945H95.2797C95.4156 0.293945 95.5253 0.402782 95.5253 0.53761Z" fill="#0A2540"></path>
<path d="M14.3295 10.1849C14.9222 9.24603 15.2185 8.10405 15.2185 6.75902C15.2185 5.41399 14.9287 4.28339 14.3491 3.3136C13.7695 2.34382 12.946 1.5982 11.8801 1.07676C10.8126 0.555319 9.54697 0.29541 8.08324 0.29541H0.14408C0.0654911 0.29541 0 0.358763 0 0.43836V19.5628C0 19.6408 0.0638538 19.7057 0.14408 19.7057H4.58602C4.6646 19.7057 4.7301 19.6424 4.7301 19.5628V13.2031C4.7301 13.1252 4.79395 13.0602 4.87418 13.0602H7.06649C7.11888 13.0602 7.168 13.0894 7.19256 13.1349L10.6374 19.5352C10.6832 19.6196 10.7978 19.6359 10.865 19.5693L13.9922 16.4666C14.0364 16.4228 14.0478 16.3529 14.0167 16.2977L11.9014 12.4462C11.8621 12.3747 11.8915 12.2853 11.9669 12.2512C12.9787 11.7655 13.7679 11.0751 14.3311 10.1833L14.3295 10.1849ZM9.94483 8.23238C9.69596 8.61412 9.33248 8.90002 8.85112 9.08521C8.36977 9.27202 7.7738 9.36461 7.05994 9.36461H4.87254C4.79395 9.36461 4.72846 9.30126 4.72846 9.22166V4.21841C4.72846 4.14044 4.79231 4.07546 4.87254 4.07546H7.05994C7.76725 4.07546 8.36158 4.17455 8.84621 4.37436C9.33085 4.57416 9.69596 4.86981 9.94483 5.26455C10.1937 5.65928 10.3181 6.15798 10.3181 6.7574C10.3181 7.35681 10.1937 7.84902 9.94483 8.23076V8.23238Z" fill="#0A2540"></path>
<path d="M97.652 3.88231V0.516492C97.652 0.393036 97.7519 0.293945 97.8763 0.293945H113.966C114.09 0.293945 114.19 0.393036 114.19 0.516492V3.88231C114.19 4.00577 114.09 4.10486 113.966 4.10486H108.481C108.357 4.10486 108.257 4.20395 108.257 4.32741V19.4834C108.257 19.6068 108.157 19.7059 108.032 19.7059H103.818C103.694 19.7059 103.594 19.6068 103.594 19.4834V4.32578C103.594 4.20233 103.494 4.10324 103.369 4.10324H97.8747C97.7503 4.10324 97.6504 4.00415 97.6504 3.88069L97.652 3.88231Z" fill="#0A2540"></path>
<path d="M134.825 19.5776V0.420651C134.825 0.3508 134.882 0.293945 134.952 0.293945H139.425C139.496 0.293945 139.553 0.3508 139.553 0.420651V15.7683C139.553 15.8381 139.61 15.895 139.681 15.895H147.564C147.635 15.895 147.692 15.9518 147.692 16.0217V19.5776C147.692 19.6474 147.635 19.7043 147.564 19.7043H134.952C134.882 19.7043 134.825 19.6474 134.825 19.5776Z" fill="#0A2540"></path>
<path d="M82.8969 9.08723C82.8445 9.08723 82.7937 9.10835 82.7561 9.14408L79.3603 12.5132V12.518H83.2472C83.2472 12.4823 83.2472 12.518 83.2472 12.518C83.2325 13.1775 83.0786 13.7542 82.7806 14.248C82.4679 14.7679 82.0095 15.1691 81.4053 15.4501C80.8011 15.7328 80.066 15.8725 79.1966 15.8725C78.2126 15.8725 77.376 15.6418 76.6867 15.1788C76.6834 15.1772 76.6817 15.174 76.6785 15.1723C75.9925 14.7094 75.4685 14.0401 75.1067 13.1629C74.8071 12.4401 74.6335 11.5905 74.5795 10.6191C74.568 10.4079 74.5598 10.1918 74.5598 9.96929C74.5598 8.7266 74.7481 7.67072 75.1247 6.80003C75.5013 5.92933 76.0367 5.26494 76.7292 4.80848C77.4218 4.35201 78.2437 4.12459 79.1966 4.12459C79.6698 4.12459 80.1037 4.17982 80.4999 4.29028C80.8961 4.40074 81.2465 4.56481 81.5543 4.77924C81.8605 4.99529 82.1192 5.25682 82.3304 5.56384C82.5154 5.83512 82.6611 6.14051 82.7675 6.48164C82.7937 6.56449 82.869 6.62297 82.9574 6.62297H87.3814C87.5009 6.62297 87.5958 6.51738 87.5795 6.39879C87.4485 5.5151 87.1636 4.69964 86.7281 3.9524C86.2549 3.14181 85.6409 2.44168 84.8845 1.85201C84.1281 1.26234 83.2587 0.805878 82.278 0.482616C81.2972 0.159354 80.2396 -0.00146484 79.1016 -0.00146484C77.7918 -0.00146484 76.5704 0.221082 75.4374 0.664552C74.3044 1.10802 73.3073 1.76104 72.4477 2.62199C71.5882 3.48457 70.9202 4.53395 70.4404 5.77339C69.9607 7.01283 69.7217 8.42933 69.7217 10.0278C69.7217 11.7529 70.0049 13.2766 70.5632 14.6054C70.6697 14.8588 70.7826 15.1074 70.9087 15.3462C71.5603 16.5726 72.4265 17.5635 73.5005 18.3254C73.733 18.4894 73.9721 18.6486 74.2242 18.7916C75.6421 19.5957 77.2859 19.9985 79.1573 19.9985C80.8437 19.9985 82.3369 19.6655 83.6369 19.0011C84.9369 18.3351 85.9586 17.3816 86.7019 16.1405C87.4452 14.8978 87.8185 13.4066 87.8185 11.6636V9.28379C87.8185 9.17495 87.7301 9.08723 87.6204 9.08723H82.8952H82.8969Z" fill="#0A2540"></path>
<path d="M128.847 8.33342L128.512 7.34739L126.205 0.563761C126.149 0.401317 125.997 0.29248 125.825 0.29248H120.106C119.934 0.29248 119.78 0.401317 119.726 0.563761L113.647 18.439L113.238 19.6443L113.216 19.7044H118.004C118.179 19.7044 118.334 19.5907 118.387 19.425L118.716 18.3854L119.587 15.6287L120.712 12.0647L121.005 11.1388L122.886 5.18364H123.038L123.986 8.18072L125.185 11.9673L125.087 12.0647L122.18 14.9481C121.928 15.1983 122.107 15.6287 122.464 15.6287H126.049C126.224 15.6287 126.38 15.7424 126.432 15.9081L127.546 19.425C127.598 19.5907 127.754 19.7044 127.929 19.7044H132.158C132.433 19.7044 132.626 19.4364 132.538 19.1781L128.849 8.33179L128.847 8.33342Z" fill="#0A2540"></path>
</g>
<defs>
<clipPath id="clip0_4440_8790">
<rect width="147.692" height="20" fill="white"></rect>
</clipPath>
</defs>
</svg>